<mxfile host="Electron" agent="Mozilla/5.0 (Windows NT 10.0; Win64; x64) AppleWebKit/537.36 (KHTML, like Gecko) draw.io/26.0.4 Chrome/128.0.6613.186 Electron/32.2.5 Safari/537.36" version="26.0.4">
  <diagram id="R2lEEEUBdFMjLlhIrx00" name="Page-1">
    <mxGraphModel dx="1073" dy="645" grid="1" gridSize="10" guides="1" tooltips="1" connect="1" arrows="1" fold="1" page="1" pageScale="1" pageWidth="850" pageHeight="1100" math="0" shadow="0" adaptiveColors="simple" extFonts="Permanent Marker^https://fonts.googleapis.com/css?family=Permanent+Marker">
      <root>
        <mxCell id="0" />
        <mxCell id="1" parent="0" />
        <mxCell id="QjGP2fid8rvRIQDYb7Sj-49" style="edgeStyle=orthogonalEdgeStyle;rounded=0;orthogonalLoop=1;jettySize=auto;html=1;exitX=0.5;exitY=1;exitDx=0;exitDy=0;entryX=0.5;entryY=0;entryDx=0;entryDy=0;strokeColor=#0B4D6A;endArrow=none;endFill=0;startArrow=ERmandOne;startFill=0;endSize=8;startSize=8;" edge="1" parent="1" source="QjGP2fid8rvRIQDYb7Sj-1" target="QjGP2fid8rvRIQDYb7Sj-48">
          <mxGeometry relative="1" as="geometry" />
        </mxCell>
        <mxCell id="QjGP2fid8rvRIQDYb7Sj-1" value="&lt;font style=&quot;font-size: 16px;&quot;&gt;Patient&lt;/font&gt;" style="whiteSpace=wrap;html=1;align=center;labelBackgroundColor=none;rounded=0;fillColor=#09555B;strokeColor=#BAC8D3;fontColor=#EEEEEE;" vertex="1" parent="1">
          <mxGeometry x="110" y="330" width="120" height="60" as="geometry" />
        </mxCell>
        <mxCell id="QjGP2fid8rvRIQDYb7Sj-67" style="edgeStyle=orthogonalEdgeStyle;rounded=0;orthogonalLoop=1;jettySize=auto;html=1;exitX=0.5;exitY=1;exitDx=0;exitDy=0;entryX=1;entryY=0.5;entryDx=0;entryDy=0;strokeColor=#0B4D6A;endArrow=ERzeroToMany;endFill=0;startArrow=none;startFill=0;endSize=8;startSize=8;" edge="1" parent="1" source="QjGP2fid8rvRIQDYb7Sj-69" target="QjGP2fid8rvRIQDYb7Sj-3">
          <mxGeometry relative="1" as="geometry" />
        </mxCell>
        <mxCell id="QjGP2fid8rvRIQDYb7Sj-2" value="&lt;font style=&quot;font-size: 16px;&quot;&gt;Doctor&lt;/font&gt;" style="whiteSpace=wrap;html=1;align=center;labelBackgroundColor=none;rounded=0;fillColor=#09555B;strokeColor=#BAC8D3;fontColor=#EEEEEE;" vertex="1" parent="1">
          <mxGeometry x="580" y="330" width="120" height="60" as="geometry" />
        </mxCell>
        <mxCell id="QjGP2fid8rvRIQDYb7Sj-73" style="edgeStyle=orthogonalEdgeStyle;rounded=0;orthogonalLoop=1;jettySize=auto;html=1;exitX=1;exitY=1;exitDx=0;exitDy=0;entryX=0;entryY=0.5;entryDx=0;entryDy=0;strokeColor=#0B4D6A;endArrow=none;endFill=0;" edge="1" parent="1" source="QjGP2fid8rvRIQDYb7Sj-3" target="QjGP2fid8rvRIQDYb7Sj-71">
          <mxGeometry relative="1" as="geometry">
            <Array as="points">
              <mxPoint x="545" y="685" />
              <mxPoint x="545" y="710" />
            </Array>
          </mxGeometry>
        </mxCell>
        <mxCell id="QjGP2fid8rvRIQDYb7Sj-74" style="edgeStyle=orthogonalEdgeStyle;rounded=0;orthogonalLoop=1;jettySize=auto;html=1;exitX=1;exitY=0;exitDx=0;exitDy=0;entryX=0.5;entryY=1;entryDx=0;entryDy=0;strokeColor=#0B4D6A;endArrow=none;endFill=0;" edge="1" parent="1" source="QjGP2fid8rvRIQDYb7Sj-3" target="QjGP2fid8rvRIQDYb7Sj-59">
          <mxGeometry relative="1" as="geometry" />
        </mxCell>
        <mxCell id="QjGP2fid8rvRIQDYb7Sj-76" style="edgeStyle=orthogonalEdgeStyle;rounded=0;orthogonalLoop=1;jettySize=auto;html=1;exitX=0.25;exitY=1;exitDx=0;exitDy=0;strokeColor=#0B4D6A;endArrow=ERzeroToOne;endFill=0;startArrow=ERmandOne;startFill=0;endSize=8;startSize=8;" edge="1" parent="1" source="QjGP2fid8rvRIQDYb7Sj-3" target="QjGP2fid8rvRIQDYb7Sj-75">
          <mxGeometry relative="1" as="geometry" />
        </mxCell>
        <mxCell id="QjGP2fid8rvRIQDYb7Sj-89" style="edgeStyle=orthogonalEdgeStyle;rounded=0;orthogonalLoop=1;jettySize=auto;html=1;exitX=0.75;exitY=1;exitDx=0;exitDy=0;entryX=0.5;entryY=0;entryDx=0;entryDy=0;strokeColor=#0B4D6A;startArrow=ERmandOne;startFill=0;endArrow=ERzeroToOne;endFill=0;endSize=8;startSize=8;" edge="1" parent="1" source="QjGP2fid8rvRIQDYb7Sj-3" target="QjGP2fid8rvRIQDYb7Sj-88">
          <mxGeometry relative="1" as="geometry">
            <Array as="points">
              <mxPoint x="390" y="770" />
              <mxPoint x="600" y="770" />
            </Array>
          </mxGeometry>
        </mxCell>
        <mxCell id="QjGP2fid8rvRIQDYb7Sj-3" value="&lt;font style=&quot;font-size: 16px;&quot;&gt;Appointment&lt;/font&gt;" style="whiteSpace=wrap;html=1;align=center;labelBackgroundColor=none;rounded=0;fillColor=#09555B;strokeColor=#BAC8D3;fontColor=#EEEEEE;" vertex="1" parent="1">
          <mxGeometry x="300" y="625" width="120" height="60" as="geometry" />
        </mxCell>
        <mxCell id="QjGP2fid8rvRIQDYb7Sj-41" style="edgeStyle=orthogonalEdgeStyle;curved=1;rounded=0;orthogonalLoop=1;jettySize=auto;html=1;exitX=0.5;exitY=1;exitDx=0;exitDy=0;entryX=0;entryY=0.25;entryDx=0;entryDy=0;strokeColor=#0B4D6A;endArrow=none;endFill=0;" edge="1" parent="1" source="QjGP2fid8rvRIQDYb7Sj-5" target="QjGP2fid8rvRIQDYb7Sj-1">
          <mxGeometry relative="1" as="geometry" />
        </mxCell>
        <mxCell id="QjGP2fid8rvRIQDYb7Sj-5" value="Patient ID" style="ellipse;whiteSpace=wrap;html=1;align=center;fontStyle=4;labelBackgroundColor=none;rounded=0;fillColor=#09555B;strokeColor=#BAC8D3;fontColor=#EEEEEE;" vertex="1" parent="1">
          <mxGeometry y="270" width="100" height="40" as="geometry" />
        </mxCell>
        <mxCell id="QjGP2fid8rvRIQDYb7Sj-15" style="edgeStyle=orthogonalEdgeStyle;curved=1;rounded=0;orthogonalLoop=1;jettySize=auto;html=1;exitX=1;exitY=0.5;exitDx=0;exitDy=0;entryX=0;entryY=0.5;entryDx=0;entryDy=0;strokeColor=#0B4D6A;endArrow=none;endFill=0;" edge="1" parent="1" source="QjGP2fid8rvRIQDYb7Sj-8" target="QjGP2fid8rvRIQDYb7Sj-14">
          <mxGeometry relative="1" as="geometry" />
        </mxCell>
        <mxCell id="QjGP2fid8rvRIQDYb7Sj-17" style="edgeStyle=orthogonalEdgeStyle;curved=1;rounded=0;orthogonalLoop=1;jettySize=auto;html=1;exitX=0;exitY=0.5;exitDx=0;exitDy=0;entryX=1;entryY=0.5;entryDx=0;entryDy=0;strokeColor=#0B4D6A;endArrow=none;endFill=0;" edge="1" parent="1" source="QjGP2fid8rvRIQDYb7Sj-8" target="QjGP2fid8rvRIQDYb7Sj-10">
          <mxGeometry relative="1" as="geometry" />
        </mxCell>
        <mxCell id="QjGP2fid8rvRIQDYb7Sj-8" value="Person Name" style="ellipse;whiteSpace=wrap;html=1;align=center;labelBackgroundColor=none;rounded=0;fillColor=#09555B;strokeColor=#BAC8D3;fontColor=#EEEEEE;" vertex="1" parent="1">
          <mxGeometry x="200" y="40" width="100" height="40" as="geometry" />
        </mxCell>
        <mxCell id="QjGP2fid8rvRIQDYb7Sj-10" value="Last Name" style="ellipse;whiteSpace=wrap;html=1;align=center;labelBackgroundColor=none;rounded=0;fillColor=#09555B;strokeColor=#BAC8D3;fontColor=#EEEEEE;" vertex="1" parent="1">
          <mxGeometry x="80" y="60" width="100" height="40" as="geometry" />
        </mxCell>
        <mxCell id="QjGP2fid8rvRIQDYb7Sj-16" style="edgeStyle=orthogonalEdgeStyle;curved=1;rounded=0;orthogonalLoop=1;jettySize=auto;html=1;exitX=1;exitY=0.5;exitDx=0;exitDy=0;entryX=0;entryY=0;entryDx=0;entryDy=0;strokeColor=#0B4D6A;endArrow=none;endFill=0;" edge="1" parent="1" source="QjGP2fid8rvRIQDYb7Sj-11" target="QjGP2fid8rvRIQDYb7Sj-8">
          <mxGeometry relative="1" as="geometry" />
        </mxCell>
        <mxCell id="QjGP2fid8rvRIQDYb7Sj-11" value="First Name" style="ellipse;whiteSpace=wrap;html=1;align=center;labelBackgroundColor=none;rounded=0;fillColor=#09555B;strokeColor=#BAC8D3;fontColor=#EEEEEE;" vertex="1" parent="1">
          <mxGeometry x="90" width="100" height="40" as="geometry" />
        </mxCell>
        <mxCell id="QjGP2fid8rvRIQDYb7Sj-14" value="&lt;font style=&quot;font-size: 16px;&quot;&gt;Person&lt;/font&gt;" style="whiteSpace=wrap;html=1;align=center;labelBackgroundColor=none;rounded=0;fillColor=#09555B;strokeColor=#BAC8D3;fontColor=#EEEEEE;" vertex="1" parent="1">
          <mxGeometry x="340" y="70" width="120" height="60" as="geometry" />
        </mxCell>
        <mxCell id="QjGP2fid8rvRIQDYb7Sj-21" style="edgeStyle=orthogonalEdgeStyle;curved=1;rounded=0;orthogonalLoop=1;jettySize=auto;html=1;exitX=0.5;exitY=1;exitDx=0;exitDy=0;entryX=0.25;entryY=0;entryDx=0;entryDy=0;strokeColor=#0B4D6A;endArrow=none;endFill=0;" edge="1" parent="1" source="QjGP2fid8rvRIQDYb7Sj-18" target="QjGP2fid8rvRIQDYb7Sj-14">
          <mxGeometry relative="1" as="geometry" />
        </mxCell>
        <mxCell id="QjGP2fid8rvRIQDYb7Sj-18" value="Person ID" style="ellipse;whiteSpace=wrap;html=1;align=center;fontStyle=4;labelBackgroundColor=none;rounded=0;fillColor=#09555B;strokeColor=#BAC8D3;fontColor=#EEEEEE;" vertex="1" parent="1">
          <mxGeometry x="270" width="100" height="40" as="geometry" />
        </mxCell>
        <mxCell id="QjGP2fid8rvRIQDYb7Sj-24" style="edgeStyle=orthogonalEdgeStyle;curved=1;rounded=0;orthogonalLoop=1;jettySize=auto;html=1;exitX=0.5;exitY=1;exitDx=0;exitDy=0;entryX=0.75;entryY=0;entryDx=0;entryDy=0;strokeColor=#0B4D6A;endArrow=none;endFill=0;" edge="1" parent="1" source="QjGP2fid8rvRIQDYb7Sj-23" target="QjGP2fid8rvRIQDYb7Sj-14">
          <mxGeometry relative="1" as="geometry" />
        </mxCell>
        <mxCell id="QjGP2fid8rvRIQDYb7Sj-23" value="Date of birth" style="ellipse;whiteSpace=wrap;html=1;align=center;labelBackgroundColor=none;rounded=0;fillColor=#09555B;strokeColor=#BAC8D3;fontColor=#EEEEEE;" vertex="1" parent="1">
          <mxGeometry x="390" width="100" height="40" as="geometry" />
        </mxCell>
        <mxCell id="QjGP2fid8rvRIQDYb7Sj-27" style="edgeStyle=orthogonalEdgeStyle;curved=1;rounded=0;orthogonalLoop=1;jettySize=auto;html=1;exitX=0;exitY=1;exitDx=0;exitDy=0;entryX=1;entryY=0.25;entryDx=0;entryDy=0;strokeColor=#0B4D6A;endArrow=none;endFill=0;" edge="1" parent="1" source="QjGP2fid8rvRIQDYb7Sj-26" target="QjGP2fid8rvRIQDYb7Sj-14">
          <mxGeometry relative="1" as="geometry" />
        </mxCell>
        <mxCell id="QjGP2fid8rvRIQDYb7Sj-26" value="Address" style="ellipse;whiteSpace=wrap;html=1;align=center;labelBackgroundColor=none;rounded=0;fillColor=#09555B;strokeColor=#BAC8D3;fontColor=#EEEEEE;" vertex="1" parent="1">
          <mxGeometry x="500" y="30" width="100" height="40" as="geometry" />
        </mxCell>
        <mxCell id="QjGP2fid8rvRIQDYb7Sj-29" style="edgeStyle=orthogonalEdgeStyle;curved=1;rounded=0;orthogonalLoop=1;jettySize=auto;html=1;exitX=0;exitY=0.5;exitDx=0;exitDy=0;strokeColor=#0B4D6A;endArrow=none;endFill=0;" edge="1" parent="1" source="QjGP2fid8rvRIQDYb7Sj-28" target="QjGP2fid8rvRIQDYb7Sj-14">
          <mxGeometry relative="1" as="geometry" />
        </mxCell>
        <mxCell id="QjGP2fid8rvRIQDYb7Sj-28" value="Contact Information" style="ellipse;whiteSpace=wrap;html=1;align=center;labelBackgroundColor=none;rounded=0;fillColor=#09555B;strokeColor=#BAC8D3;fontColor=#EEEEEE;" vertex="1" parent="1">
          <mxGeometry x="520" y="100" width="100" height="40" as="geometry" />
        </mxCell>
        <mxCell id="QjGP2fid8rvRIQDYb7Sj-31" style="edgeStyle=orthogonalEdgeStyle;curved=1;rounded=0;orthogonalLoop=1;jettySize=auto;html=1;exitX=0;exitY=0.5;exitDx=0;exitDy=0;entryX=1;entryY=0.5;entryDx=0;entryDy=0;strokeColor=#0B4D6A;endArrow=none;endFill=0;" edge="1" parent="1" source="QjGP2fid8rvRIQDYb7Sj-64" target="QjGP2fid8rvRIQDYb7Sj-28">
          <mxGeometry relative="1" as="geometry">
            <mxPoint x="644.6446609406726" y="94.14213562373095" as="sourcePoint" />
          </mxGeometry>
        </mxCell>
        <mxCell id="QjGP2fid8rvRIQDYb7Sj-33" style="edgeStyle=orthogonalEdgeStyle;curved=1;rounded=0;orthogonalLoop=1;jettySize=auto;html=1;exitX=0;exitY=0.5;exitDx=0;exitDy=0;strokeColor=#0B4D6A;endArrow=none;endFill=0;" edge="1" parent="1" source="QjGP2fid8rvRIQDYb7Sj-65" target="QjGP2fid8rvRIQDYb7Sj-28">
          <mxGeometry relative="1" as="geometry">
            <mxPoint x="664.6446609406726" y="135.85786437626905" as="sourcePoint" />
          </mxGeometry>
        </mxCell>
        <mxCell id="QjGP2fid8rvRIQDYb7Sj-35" style="edgeStyle=orthogonalEdgeStyle;curved=1;rounded=0;orthogonalLoop=1;jettySize=auto;html=1;exitX=1;exitY=0.5;exitDx=0;exitDy=0;entryX=0.75;entryY=1;entryDx=0;entryDy=0;strokeColor=#0B4D6A;endArrow=ERmandOne;endFill=0;endSize=8;startSize=8;" edge="1" parent="1" source="QjGP2fid8rvRIQDYb7Sj-34" target="QjGP2fid8rvRIQDYb7Sj-14">
          <mxGeometry relative="1" as="geometry" />
        </mxCell>
        <mxCell id="QjGP2fid8rvRIQDYb7Sj-36" style="edgeStyle=orthogonalEdgeStyle;curved=1;rounded=0;orthogonalLoop=1;jettySize=auto;html=1;exitX=0;exitY=0.5;exitDx=0;exitDy=0;entryX=0.5;entryY=0;entryDx=0;entryDy=0;strokeColor=#0B4D6A;endArrow=ERzeroToOne;endFill=0;" edge="1" parent="1" source="QjGP2fid8rvRIQDYb7Sj-34" target="QjGP2fid8rvRIQDYb7Sj-2">
          <mxGeometry relative="1" as="geometry" />
        </mxCell>
        <mxCell id="QjGP2fid8rvRIQDYb7Sj-34" value="&lt;font style=&quot;font-size: 14px;&quot;&gt;&lt;b&gt;IS&lt;/b&gt;&lt;/font&gt;&lt;div&gt;&lt;font style=&quot;font-size: 14px;&quot;&gt;&lt;b&gt;A&lt;/b&gt;&lt;/font&gt;&lt;/div&gt;" style="triangle;whiteSpace=wrap;html=1;strokeColor=#BAC8D3;fontColor=#EEEEEE;fillColor=#09555B;direction=north;" vertex="1" parent="1">
          <mxGeometry x="590" y="210" width="80" height="60" as="geometry" />
        </mxCell>
        <mxCell id="QjGP2fid8rvRIQDYb7Sj-38" style="edgeStyle=orthogonalEdgeStyle;curved=1;rounded=0;orthogonalLoop=1;jettySize=auto;html=1;exitX=1;exitY=0.5;exitDx=0;exitDy=0;entryX=0.25;entryY=1;entryDx=0;entryDy=0;strokeColor=#0B4D6A;endArrow=ERmandOne;endFill=0;startArrow=none;startFill=0;startSize=8;endSize=8;" edge="1" parent="1" source="QjGP2fid8rvRIQDYb7Sj-37" target="QjGP2fid8rvRIQDYb7Sj-14">
          <mxGeometry relative="1" as="geometry" />
        </mxCell>
        <mxCell id="QjGP2fid8rvRIQDYb7Sj-37" value="&lt;font style=&quot;font-size: 14px;&quot;&gt;&lt;b&gt;IS&lt;/b&gt;&lt;/font&gt;&lt;div&gt;&lt;font style=&quot;font-size: 14px;&quot;&gt;&lt;b&gt;A&lt;/b&gt;&lt;/font&gt;&lt;/div&gt;" style="triangle;whiteSpace=wrap;html=1;strokeColor=#BAC8D3;fontColor=#EEEEEE;fillColor=#09555B;direction=north;" vertex="1" parent="1">
          <mxGeometry x="140" y="220" width="80" height="60" as="geometry" />
        </mxCell>
        <mxCell id="QjGP2fid8rvRIQDYb7Sj-39" style="edgeStyle=orthogonalEdgeStyle;curved=1;rounded=0;orthogonalLoop=1;jettySize=auto;html=1;exitX=0;exitY=0.5;exitDx=0;exitDy=0;entryX=0.4;entryY=0.017;entryDx=0;entryDy=0;entryPerimeter=0;strokeColor=#0B4D6A;endArrow=ERzeroToOne;endFill=0;" edge="1" parent="1" source="QjGP2fid8rvRIQDYb7Sj-37" target="QjGP2fid8rvRIQDYb7Sj-1">
          <mxGeometry relative="1" as="geometry" />
        </mxCell>
        <mxCell id="QjGP2fid8rvRIQDYb7Sj-45" style="edgeStyle=orthogonalEdgeStyle;curved=1;rounded=0;orthogonalLoop=1;jettySize=auto;html=1;exitX=0.5;exitY=1;exitDx=0;exitDy=0;entryX=0;entryY=0.5;entryDx=0;entryDy=0;strokeColor=#0B4D6A;endArrow=none;endFill=0;" edge="1" parent="1" source="QjGP2fid8rvRIQDYb7Sj-42" target="QjGP2fid8rvRIQDYb7Sj-2">
          <mxGeometry relative="1" as="geometry" />
        </mxCell>
        <mxCell id="QjGP2fid8rvRIQDYb7Sj-42" value="Doctor ID" style="ellipse;whiteSpace=wrap;html=1;align=center;fontStyle=4;labelBackgroundColor=none;rounded=0;fillColor=#09555B;strokeColor=#BAC8D3;fontColor=#EEEEEE;" vertex="1" parent="1">
          <mxGeometry x="450" y="280" width="100" height="40" as="geometry" />
        </mxCell>
        <mxCell id="QjGP2fid8rvRIQDYb7Sj-47" style="edgeStyle=orthogonalEdgeStyle;curved=1;rounded=0;orthogonalLoop=1;jettySize=auto;html=1;exitX=0;exitY=1;exitDx=0;exitDy=0;strokeColor=#0B4D6A;endArrow=none;endFill=0;" edge="1" parent="1" source="QjGP2fid8rvRIQDYb7Sj-46" target="QjGP2fid8rvRIQDYb7Sj-2">
          <mxGeometry relative="1" as="geometry" />
        </mxCell>
        <mxCell id="QjGP2fid8rvRIQDYb7Sj-46" value="Speclization" style="ellipse;whiteSpace=wrap;html=1;align=center;labelBackgroundColor=none;rounded=0;fillColor=#09555B;strokeColor=#BAC8D3;fontColor=#EEEEEE;" vertex="1" parent="1">
          <mxGeometry x="730" y="300" width="100" height="40" as="geometry" />
        </mxCell>
        <mxCell id="QjGP2fid8rvRIQDYb7Sj-50" style="edgeStyle=orthogonalEdgeStyle;rounded=0;orthogonalLoop=1;jettySize=auto;html=1;exitX=0.5;exitY=1;exitDx=0;exitDy=0;entryX=0;entryY=0.5;entryDx=0;entryDy=0;strokeColor=#0B4D6A;endArrow=ERzeroToMany;endFill=0;endSize=8;startSize=8;" edge="1" parent="1" source="QjGP2fid8rvRIQDYb7Sj-48" target="QjGP2fid8rvRIQDYb7Sj-3">
          <mxGeometry relative="1" as="geometry">
            <mxPoint x="180" y="540" as="sourcePoint" />
            <Array as="points">
              <mxPoint x="170" y="655" />
            </Array>
          </mxGeometry>
        </mxCell>
        <mxCell id="QjGP2fid8rvRIQDYb7Sj-48" value="Reserve" style="shape=rhombus;perimeter=rhombusPerimeter;whiteSpace=wrap;html=1;align=center;strokeColor=#BAC8D3;fontColor=#EEEEEE;fillColor=#09555B;" vertex="1" parent="1">
          <mxGeometry x="120" y="460" width="100" height="50" as="geometry" />
        </mxCell>
        <mxCell id="QjGP2fid8rvRIQDYb7Sj-53" style="edgeStyle=orthogonalEdgeStyle;rounded=0;orthogonalLoop=1;jettySize=auto;html=1;exitX=0.5;exitY=1;exitDx=0;exitDy=0;entryX=0.5;entryY=0;entryDx=0;entryDy=0;strokeColor=#0B4D6A;endArrow=none;endFill=0;" edge="1" parent="1" source="QjGP2fid8rvRIQDYb7Sj-52" target="QjGP2fid8rvRIQDYb7Sj-3">
          <mxGeometry relative="1" as="geometry">
            <Array as="points">
              <mxPoint x="320" y="510" />
              <mxPoint x="350" y="510" />
              <mxPoint x="350" y="630" />
              <mxPoint x="360" y="630" />
            </Array>
          </mxGeometry>
        </mxCell>
        <mxCell id="QjGP2fid8rvRIQDYb7Sj-52" value="Appointment ID" style="ellipse;whiteSpace=wrap;html=1;align=center;fontStyle=4;labelBackgroundColor=none;rounded=0;fillColor=#09555B;strokeColor=#BAC8D3;fontColor=#EEEEEE;" vertex="1" parent="1">
          <mxGeometry x="280" y="450" width="100" height="40" as="geometry" />
        </mxCell>
        <mxCell id="QjGP2fid8rvRIQDYb7Sj-54" value="Patient ID" style="ellipse;whiteSpace=wrap;html=1;align=center;labelBackgroundColor=none;rounded=0;fillColor=#09555B;strokeColor=#BAC8D3;fontColor=#EEEEEE;" vertex="1" parent="1">
          <mxGeometry x="230" y="520" width="100" height="40" as="geometry" />
        </mxCell>
        <mxCell id="QjGP2fid8rvRIQDYb7Sj-55" style="edgeStyle=orthogonalEdgeStyle;rounded=0;orthogonalLoop=1;jettySize=auto;html=1;exitX=1;exitY=1;exitDx=0;exitDy=0;entryX=0.181;entryY=0.014;entryDx=0;entryDy=0;entryPerimeter=0;strokeColor=#0B4D6A;endArrow=none;endFill=0;" edge="1" parent="1" source="QjGP2fid8rvRIQDYb7Sj-54" target="QjGP2fid8rvRIQDYb7Sj-3">
          <mxGeometry relative="1" as="geometry">
            <Array as="points">
              <mxPoint x="295" y="564" />
              <mxPoint x="310" y="564" />
              <mxPoint x="310" y="626" />
            </Array>
          </mxGeometry>
        </mxCell>
        <mxCell id="QjGP2fid8rvRIQDYb7Sj-57" style="edgeStyle=orthogonalEdgeStyle;rounded=0;orthogonalLoop=1;jettySize=auto;html=1;exitX=1;exitY=0.5;exitDx=0;exitDy=0;entryX=0;entryY=1;entryDx=0;entryDy=0;strokeColor=#0B4D6A;endArrow=none;endFill=0;" edge="1" parent="1">
          <mxGeometry relative="1" as="geometry">
            <mxPoint x="200" y="692.5" as="sourcePoint" />
            <mxPoint x="300" y="687.5" as="targetPoint" />
            <Array as="points">
              <mxPoint x="300" y="693" />
            </Array>
          </mxGeometry>
        </mxCell>
        <mxCell id="QjGP2fid8rvRIQDYb7Sj-56" value="Doctor ID" style="ellipse;whiteSpace=wrap;html=1;align=center;labelBackgroundColor=none;rounded=0;fillColor=#09555B;strokeColor=#BAC8D3;fontColor=#EEEEEE;" vertex="1" parent="1">
          <mxGeometry x="100" y="670" width="100" height="40" as="geometry" />
        </mxCell>
        <mxCell id="QjGP2fid8rvRIQDYb7Sj-60" style="rounded=0;orthogonalLoop=1;jettySize=auto;html=1;exitX=0.5;exitY=1;exitDx=0;exitDy=0;entryX=0.667;entryY=0.033;entryDx=0;entryDy=0;strokeColor=#0B4D6A;endArrow=none;endFill=0;edgeStyle=orthogonalEdgeStyle;entryPerimeter=0;" edge="1" parent="1" source="QjGP2fid8rvRIQDYb7Sj-58" target="QjGP2fid8rvRIQDYb7Sj-3">
          <mxGeometry relative="1" as="geometry">
            <mxPoint x="310" y="535" as="sourcePoint" />
            <Array as="points">
              <mxPoint x="425" y="530" />
              <mxPoint x="380" y="530" />
            </Array>
          </mxGeometry>
        </mxCell>
        <mxCell id="QjGP2fid8rvRIQDYb7Sj-58" value="Date / Time" style="ellipse;whiteSpace=wrap;html=1;align=center;strokeColor=#BAC8D3;fontColor=#EEEEEE;fillColor=#09555B;" vertex="1" parent="1">
          <mxGeometry x="375" y="480" width="100" height="40" as="geometry" />
        </mxCell>
        <mxCell id="QjGP2fid8rvRIQDYb7Sj-59" value="Payment ID" style="ellipse;whiteSpace=wrap;html=1;align=center;strokeColor=#BAC8D3;fontColor=#EEEEEE;fillColor=#09555B;" vertex="1" parent="1">
          <mxGeometry x="440" y="530" width="90" height="40" as="geometry" />
        </mxCell>
        <mxCell id="QjGP2fid8rvRIQDYb7Sj-63" value="" style="edgeStyle=orthogonalEdgeStyle;curved=1;rounded=0;orthogonalLoop=1;jettySize=auto;html=1;strokeColor=#0B4D6A;endArrow=none;endFill=0;" edge="1" parent="1" source="QjGP2fid8rvRIQDYb7Sj-62" target="QjGP2fid8rvRIQDYb7Sj-14">
          <mxGeometry relative="1" as="geometry" />
        </mxCell>
        <mxCell id="QjGP2fid8rvRIQDYb7Sj-62" value="Gender" style="ellipse;whiteSpace=wrap;html=1;align=center;labelBackgroundColor=none;rounded=0;fillColor=#09555B;strokeColor=#BAC8D3;fontColor=#EEEEEE;" vertex="1" parent="1">
          <mxGeometry x="190" y="100" width="100" height="40" as="geometry" />
        </mxCell>
        <mxCell id="QjGP2fid8rvRIQDYb7Sj-64" value="Phone Number" style="ellipse;whiteSpace=wrap;html=1;align=center;labelBackgroundColor=none;rounded=0;fillColor=#09555B;strokeColor=#BAC8D3;fontColor=#EEEEEE;" vertex="1" parent="1">
          <mxGeometry x="640" y="70" width="100" height="40" as="geometry" />
        </mxCell>
        <mxCell id="QjGP2fid8rvRIQDYb7Sj-65" value="Email Address" style="ellipse;whiteSpace=wrap;html=1;align=center;labelBackgroundColor=none;rounded=0;fillColor=#09555B;strokeColor=#BAC8D3;fontColor=#EEEEEE;" vertex="1" parent="1">
          <mxGeometry x="660" y="120" width="100" height="40" as="geometry" />
        </mxCell>
        <mxCell id="QjGP2fid8rvRIQDYb7Sj-68" value="" style="edgeStyle=orthogonalEdgeStyle;rounded=0;orthogonalLoop=1;jettySize=auto;html=1;entryX=0.5;entryY=0;entryDx=0;entryDy=0;strokeColor=#0B4D6A;endArrow=none;endFill=0;startArrow=ERmandOne;startFill=0;endSize=8;startSize=8;" edge="1" parent="1" target="QjGP2fid8rvRIQDYb7Sj-69">
          <mxGeometry relative="1" as="geometry">
            <mxPoint x="640" y="390" as="sourcePoint" />
            <mxPoint x="490" y="630" as="targetPoint" />
          </mxGeometry>
        </mxCell>
        <mxCell id="QjGP2fid8rvRIQDYb7Sj-69" value="treats" style="shape=rhombus;perimeter=rhombusPerimeter;whiteSpace=wrap;html=1;align=center;strokeColor=#BAC8D3;fontColor=#EEEEEE;fillColor=#09555B;" vertex="1" parent="1">
          <mxGeometry x="580" y="500" width="120" height="60" as="geometry" />
        </mxCell>
        <mxCell id="QjGP2fid8rvRIQDYb7Sj-71" value="Madical Record ID" style="ellipse;whiteSpace=wrap;html=1;align=center;strokeColor=#BAC8D3;fontColor=#EEEEEE;fillColor=#09555B;" vertex="1" parent="1">
          <mxGeometry x="550" y="685" width="110" height="50" as="geometry" />
        </mxCell>
        <mxCell id="QjGP2fid8rvRIQDYb7Sj-83" style="edgeStyle=orthogonalEdgeStyle;rounded=0;orthogonalLoop=1;jettySize=auto;html=1;exitX=0.25;exitY=1;exitDx=0;exitDy=0;entryX=0.5;entryY=0;entryDx=0;entryDy=0;strokeColor=#0B4D6A;endArrow=none;endFill=0;" edge="1" parent="1" source="QjGP2fid8rvRIQDYb7Sj-75" target="QjGP2fid8rvRIQDYb7Sj-82">
          <mxGeometry relative="1" as="geometry" />
        </mxCell>
        <mxCell id="QjGP2fid8rvRIQDYb7Sj-87" style="edgeStyle=orthogonalEdgeStyle;rounded=0;orthogonalLoop=1;jettySize=auto;html=1;exitX=1;exitY=0.5;exitDx=0;exitDy=0;entryX=0;entryY=0.5;entryDx=0;entryDy=0;strokeColor=#0B4D6A;endArrow=none;endFill=0;" edge="1" parent="1" source="QjGP2fid8rvRIQDYb7Sj-75" target="QjGP2fid8rvRIQDYb7Sj-86">
          <mxGeometry relative="1" as="geometry" />
        </mxCell>
        <mxCell id="QjGP2fid8rvRIQDYb7Sj-75" value="&lt;font style=&quot;font-size: 16px;&quot;&gt;Payment&lt;/font&gt;" style="whiteSpace=wrap;html=1;align=center;labelBackgroundColor=none;rounded=0;fillColor=#09555B;strokeColor=#BAC8D3;fontColor=#EEEEEE;" vertex="1" parent="1">
          <mxGeometry x="150" y="830" width="120" height="60" as="geometry" />
        </mxCell>
        <mxCell id="QjGP2fid8rvRIQDYb7Sj-79" style="edgeStyle=orthogonalEdgeStyle;rounded=0;orthogonalLoop=1;jettySize=auto;html=1;exitX=0.5;exitY=1;exitDx=0;exitDy=0;entryX=0;entryY=0.5;entryDx=0;entryDy=0;strokeColor=#0B4D6A;endArrow=none;endFill=0;" edge="1" parent="1" source="QjGP2fid8rvRIQDYb7Sj-77" target="QjGP2fid8rvRIQDYb7Sj-75">
          <mxGeometry relative="1" as="geometry" />
        </mxCell>
        <mxCell id="QjGP2fid8rvRIQDYb7Sj-77" value="Payment ID" style="ellipse;whiteSpace=wrap;html=1;align=center;fontStyle=4;labelBackgroundColor=none;rounded=0;fillColor=#09555B;strokeColor=#BAC8D3;fontColor=#EEEEEE;" vertex="1" parent="1">
          <mxGeometry x="10" y="800" width="100" height="40" as="geometry" />
        </mxCell>
        <mxCell id="QjGP2fid8rvRIQDYb7Sj-81" style="edgeStyle=orthogonalEdgeStyle;rounded=0;orthogonalLoop=1;jettySize=auto;html=1;exitX=0.5;exitY=0;exitDx=0;exitDy=0;entryX=0;entryY=1;entryDx=0;entryDy=0;strokeColor=#0B4D6A;endArrow=none;endFill=0;" edge="1" parent="1" source="QjGP2fid8rvRIQDYb7Sj-80" target="QjGP2fid8rvRIQDYb7Sj-75">
          <mxGeometry relative="1" as="geometry">
            <Array as="points">
              <mxPoint x="80" y="890" />
            </Array>
          </mxGeometry>
        </mxCell>
        <mxCell id="QjGP2fid8rvRIQDYb7Sj-80" value="Date" style="ellipse;whiteSpace=wrap;html=1;align=center;labelBackgroundColor=none;rounded=0;fillColor=#09555B;strokeColor=#BAC8D3;fontColor=#EEEEEE;" vertex="1" parent="1">
          <mxGeometry x="30" y="900" width="100" height="40" as="geometry" />
        </mxCell>
        <mxCell id="QjGP2fid8rvRIQDYb7Sj-82" value="Payment method" style="ellipse;whiteSpace=wrap;html=1;align=center;labelBackgroundColor=none;rounded=0;fillColor=#09555B;strokeColor=#BAC8D3;fontColor=#EEEEEE;" vertex="1" parent="1">
          <mxGeometry x="125" y="940" width="110" height="50" as="geometry" />
        </mxCell>
        <mxCell id="QjGP2fid8rvRIQDYb7Sj-85" style="edgeStyle=orthogonalEdgeStyle;rounded=0;orthogonalLoop=1;jettySize=auto;html=1;exitX=0;exitY=0;exitDx=0;exitDy=0;strokeColor=#0B4D6A;endArrow=none;endFill=0;" edge="1" parent="1" source="QjGP2fid8rvRIQDYb7Sj-84">
          <mxGeometry relative="1" as="geometry">
            <mxPoint x="230" y="900" as="targetPoint" />
          </mxGeometry>
        </mxCell>
        <mxCell id="QjGP2fid8rvRIQDYb7Sj-84" value="Amount Paid" style="ellipse;whiteSpace=wrap;html=1;align=center;labelBackgroundColor=none;rounded=0;fillColor=#09555B;strokeColor=#BAC8D3;fontColor=#EEEEEE;" vertex="1" parent="1">
          <mxGeometry x="250" y="910" width="120" height="50" as="geometry" />
        </mxCell>
        <mxCell id="QjGP2fid8rvRIQDYb7Sj-86" value="Additional Notes" style="ellipse;whiteSpace=wrap;html=1;align=center;labelBackgroundColor=none;rounded=0;fillColor=#09555B;strokeColor=#BAC8D3;fontColor=#EEEEEE;" vertex="1" parent="1">
          <mxGeometry x="300" y="835" width="120" height="50" as="geometry" />
        </mxCell>
        <mxCell id="QjGP2fid8rvRIQDYb7Sj-93" style="edgeStyle=orthogonalEdgeStyle;rounded=0;orthogonalLoop=1;jettySize=auto;html=1;exitX=1;exitY=1;exitDx=0;exitDy=0;entryX=0;entryY=0.5;entryDx=0;entryDy=0;strokeColor=#0B4D6A;endArrow=none;endFill=0;" edge="1" parent="1" source="QjGP2fid8rvRIQDYb7Sj-88" target="QjGP2fid8rvRIQDYb7Sj-92">
          <mxGeometry relative="1" as="geometry" />
        </mxCell>
        <mxCell id="QjGP2fid8rvRIQDYb7Sj-98" style="edgeStyle=orthogonalEdgeStyle;rounded=0;orthogonalLoop=1;jettySize=auto;html=1;exitX=1;exitY=0.5;exitDx=0;exitDy=0;entryX=0;entryY=0.5;entryDx=0;entryDy=0;strokeColor=#0B4D6A;endArrow=none;endFill=0;" edge="1" parent="1" source="QjGP2fid8rvRIQDYb7Sj-88" target="QjGP2fid8rvRIQDYb7Sj-97">
          <mxGeometry relative="1" as="geometry" />
        </mxCell>
        <mxCell id="QjGP2fid8rvRIQDYb7Sj-100" style="edgeStyle=orthogonalEdgeStyle;rounded=0;orthogonalLoop=1;jettySize=auto;html=1;exitX=0.5;exitY=1;exitDx=0;exitDy=0;entryX=0.5;entryY=0;entryDx=0;entryDy=0;strokeColor=#0B4D6A;endArrow=ERzeroToOne;endFill=0;startArrow=ERmandOne;startFill=0;endSize=8;startSize=8;" edge="1" parent="1" source="QjGP2fid8rvRIQDYb7Sj-88" target="QjGP2fid8rvRIQDYb7Sj-99">
          <mxGeometry relative="1" as="geometry" />
        </mxCell>
        <mxCell id="QjGP2fid8rvRIQDYb7Sj-88" value="&lt;font style=&quot;font-size: 16px;&quot;&gt;Medical record&lt;/font&gt;" style="whiteSpace=wrap;html=1;align=center;labelBackgroundColor=none;rounded=0;fillColor=#09555B;strokeColor=#BAC8D3;fontColor=#EEEEEE;" vertex="1" parent="1">
          <mxGeometry x="540" y="860" width="120" height="60" as="geometry" />
        </mxCell>
        <mxCell id="QjGP2fid8rvRIQDYb7Sj-91" style="edgeStyle=orthogonalEdgeStyle;rounded=0;orthogonalLoop=1;jettySize=auto;html=1;exitX=0;exitY=0.5;exitDx=0;exitDy=0;entryX=1;entryY=0;entryDx=0;entryDy=0;strokeColor=#0B4D6A;endArrow=none;endFill=0;" edge="1" parent="1" source="QjGP2fid8rvRIQDYb7Sj-90" target="QjGP2fid8rvRIQDYb7Sj-88">
          <mxGeometry relative="1" as="geometry" />
        </mxCell>
        <mxCell id="QjGP2fid8rvRIQDYb7Sj-90" value="Visit&amp;nbsp; description" style="ellipse;whiteSpace=wrap;html=1;align=center;strokeColor=#BAC8D3;fontColor=#EEEEEE;fillColor=#09555B;" vertex="1" parent="1">
          <mxGeometry x="700" y="795" width="110" height="50" as="geometry" />
        </mxCell>
        <mxCell id="QjGP2fid8rvRIQDYb7Sj-92" value="Additional notes" style="ellipse;whiteSpace=wrap;html=1;align=center;strokeColor=#BAC8D3;fontColor=#EEEEEE;fillColor=#09555B;" vertex="1" parent="1">
          <mxGeometry x="720" y="920" width="110" height="50" as="geometry" />
        </mxCell>
        <mxCell id="QjGP2fid8rvRIQDYb7Sj-96" style="edgeStyle=orthogonalEdgeStyle;rounded=0;orthogonalLoop=1;jettySize=auto;html=1;exitX=0.5;exitY=1;exitDx=0;exitDy=0;entryX=0;entryY=0.5;entryDx=0;entryDy=0;strokeColor=#0B4D6A;endArrow=none;endFill=0;" edge="1" parent="1" source="QjGP2fid8rvRIQDYb7Sj-94" target="QjGP2fid8rvRIQDYb7Sj-88">
          <mxGeometry relative="1" as="geometry" />
        </mxCell>
        <mxCell id="QjGP2fid8rvRIQDYb7Sj-94" value="Medical record ID" style="ellipse;whiteSpace=wrap;html=1;align=center;fontStyle=4;strokeColor=#BAC8D3;fontColor=#EEEEEE;fillColor=#09555B;" vertex="1" parent="1">
          <mxGeometry x="450" y="800" width="110" height="50" as="geometry" />
        </mxCell>
        <mxCell id="QjGP2fid8rvRIQDYb7Sj-97" value="Diagnosis" style="ellipse;whiteSpace=wrap;html=1;align=center;strokeColor=#BAC8D3;fontColor=#EEEEEE;fillColor=#09555B;" vertex="1" parent="1">
          <mxGeometry x="720" y="860" width="110" height="50" as="geometry" />
        </mxCell>
        <mxCell id="QjGP2fid8rvRIQDYb7Sj-106" style="edgeStyle=orthogonalEdgeStyle;rounded=0;orthogonalLoop=1;jettySize=auto;html=1;exitX=0;exitY=0.5;exitDx=0;exitDy=0;entryX=1;entryY=0.5;entryDx=0;entryDy=0;strokeColor=#0B4D6A;endArrow=none;endFill=0;" edge="1" parent="1" source="QjGP2fid8rvRIQDYb7Sj-99" target="QjGP2fid8rvRIQDYb7Sj-105">
          <mxGeometry relative="1" as="geometry" />
        </mxCell>
        <mxCell id="QjGP2fid8rvRIQDYb7Sj-112" style="edgeStyle=orthogonalEdgeStyle;rounded=0;orthogonalLoop=1;jettySize=auto;html=1;exitX=0.25;exitY=1;exitDx=0;exitDy=0;entryX=1;entryY=0;entryDx=0;entryDy=0;strokeColor=#0B4D6A;endArrow=none;endFill=0;" edge="1" parent="1" source="QjGP2fid8rvRIQDYb7Sj-99" target="QjGP2fid8rvRIQDYb7Sj-111">
          <mxGeometry relative="1" as="geometry">
            <Array as="points">
              <mxPoint x="510" y="1200" />
              <mxPoint x="473" y="1200" />
            </Array>
          </mxGeometry>
        </mxCell>
        <mxCell id="QjGP2fid8rvRIQDYb7Sj-114" style="edgeStyle=orthogonalEdgeStyle;rounded=0;orthogonalLoop=1;jettySize=auto;html=1;exitX=0.5;exitY=1;exitDx=0;exitDy=0;strokeColor=#0B4D6A;endArrow=none;endFill=0;" edge="1" parent="1" source="QjGP2fid8rvRIQDYb7Sj-99" target="QjGP2fid8rvRIQDYb7Sj-113">
          <mxGeometry relative="1" as="geometry" />
        </mxCell>
        <mxCell id="QjGP2fid8rvRIQDYb7Sj-118" style="edgeStyle=orthogonalEdgeStyle;rounded=0;orthogonalLoop=1;jettySize=auto;html=1;exitX=1;exitY=1;exitDx=0;exitDy=0;entryX=0;entryY=0.5;entryDx=0;entryDy=0;strokeColor=#0B4D6A;endArrow=none;endFill=0;" edge="1" parent="1" source="QjGP2fid8rvRIQDYb7Sj-99" target="QjGP2fid8rvRIQDYb7Sj-117">
          <mxGeometry relative="1" as="geometry">
            <Array as="points">
              <mxPoint x="620" y="1110" />
              <mxPoint x="620" y="1205" />
            </Array>
          </mxGeometry>
        </mxCell>
        <mxCell id="QjGP2fid8rvRIQDYb7Sj-99" value="&lt;font style=&quot;font-size: 16px;&quot;&gt;Prescription&lt;/font&gt;" style="whiteSpace=wrap;html=1;align=center;labelBackgroundColor=none;rounded=0;fillColor=#09555B;strokeColor=#BAC8D3;fontColor=#EEEEEE;" vertex="1" parent="1">
          <mxGeometry x="480" y="1050" width="120" height="60" as="geometry" />
        </mxCell>
        <mxCell id="QjGP2fid8rvRIQDYb7Sj-102" style="edgeStyle=orthogonalEdgeStyle;rounded=0;orthogonalLoop=1;jettySize=auto;html=1;exitX=1;exitY=0.5;exitDx=0;exitDy=0;entryX=0;entryY=0;entryDx=0;entryDy=0;strokeColor=#0B4D6A;endArrow=none;endFill=0;" edge="1" parent="1" source="QjGP2fid8rvRIQDYb7Sj-101" target="QjGP2fid8rvRIQDYb7Sj-99">
          <mxGeometry relative="1" as="geometry" />
        </mxCell>
        <mxCell id="QjGP2fid8rvRIQDYb7Sj-101" value="Prescription ID" style="ellipse;whiteSpace=wrap;html=1;align=center;fontStyle=4;strokeColor=#BAC8D3;fontColor=#EEEEEE;fillColor=#09555B;" vertex="1" parent="1">
          <mxGeometry x="340" y="1000" width="115" height="60" as="geometry" />
        </mxCell>
        <mxCell id="QjGP2fid8rvRIQDYb7Sj-103" value="Medication Name" style="ellipse;whiteSpace=wrap;html=1;align=center;strokeColor=#BAC8D3;fontColor=#EEEEEE;fillColor=#09555B;" vertex="1" parent="1">
          <mxGeometry x="650" y="1020" width="120" height="60" as="geometry" />
        </mxCell>
        <mxCell id="QjGP2fid8rvRIQDYb7Sj-104" style="edgeStyle=orthogonalEdgeStyle;rounded=0;orthogonalLoop=1;jettySize=auto;html=1;exitX=1;exitY=0;exitDx=0;exitDy=0;entryX=-0.013;entryY=0.382;entryDx=0;entryDy=0;entryPerimeter=0;strokeColor=#0B4D6A;endArrow=none;endFill=0;" edge="1" parent="1" source="QjGP2fid8rvRIQDYb7Sj-99" target="QjGP2fid8rvRIQDYb7Sj-103">
          <mxGeometry relative="1" as="geometry">
            <Array as="points">
              <mxPoint x="600" y="1039" />
            </Array>
          </mxGeometry>
        </mxCell>
        <mxCell id="QjGP2fid8rvRIQDYb7Sj-105" value="Dosage" style="ellipse;whiteSpace=wrap;html=1;align=center;strokeColor=#BAC8D3;fontColor=#EEEEEE;fillColor=#09555B;" vertex="1" parent="1">
          <mxGeometry x="270" y="1070" width="120" height="60" as="geometry" />
        </mxCell>
        <mxCell id="QjGP2fid8rvRIQDYb7Sj-107" value="Frequency" style="ellipse;whiteSpace=wrap;html=1;align=center;strokeColor=#BAC8D3;fontColor=#EEEEEE;fillColor=#09555B;" vertex="1" parent="1">
          <mxGeometry x="290" y="1140" width="120" height="50" as="geometry" />
        </mxCell>
        <mxCell id="QjGP2fid8rvRIQDYb7Sj-108" style="edgeStyle=orthogonalEdgeStyle;rounded=0;orthogonalLoop=1;jettySize=auto;html=1;exitX=1;exitY=0.5;exitDx=0;exitDy=0;entryX=0;entryY=1;entryDx=0;entryDy=0;strokeColor=#0B4D6A;endArrow=none;endFill=0;" edge="1" parent="1" source="QjGP2fid8rvRIQDYb7Sj-107">
          <mxGeometry relative="1" as="geometry">
            <mxPoint x="410" y="1160" as="sourcePoint" />
            <mxPoint x="480" y="1100" as="targetPoint" />
          </mxGeometry>
        </mxCell>
        <mxCell id="QjGP2fid8rvRIQDYb7Sj-111" value="Start Date" style="ellipse;whiteSpace=wrap;html=1;align=center;strokeColor=#BAC8D3;fontColor=#EEEEEE;fillColor=#09555B;" vertex="1" parent="1">
          <mxGeometry x="370" y="1200" width="120" height="50" as="geometry" />
        </mxCell>
        <mxCell id="QjGP2fid8rvRIQDYb7Sj-113" value="End Date" style="ellipse;whiteSpace=wrap;html=1;align=center;strokeColor=#BAC8D3;fontColor=#EEEEEE;fillColor=#09555B;" vertex="1" parent="1">
          <mxGeometry x="510" y="1210" width="120" height="50" as="geometry" />
        </mxCell>
        <mxCell id="QjGP2fid8rvRIQDYb7Sj-115" value="SpecialInstructions" style="ellipse;whiteSpace=wrap;html=1;align=center;strokeColor=#BAC8D3;fontColor=#EEEEEE;fillColor=#09555B;" vertex="1" parent="1">
          <mxGeometry x="690" y="1090" width="130" height="60" as="geometry" />
        </mxCell>
        <mxCell id="QjGP2fid8rvRIQDYb7Sj-116" style="edgeStyle=orthogonalEdgeStyle;rounded=0;orthogonalLoop=1;jettySize=auto;html=1;exitX=1;exitY=0.5;exitDx=0;exitDy=0;entryX=-0.003;entryY=0.629;entryDx=0;entryDy=0;entryPerimeter=0;strokeColor=#0B4D6A;endArrow=none;endFill=0;" edge="1" parent="1" source="QjGP2fid8rvRIQDYb7Sj-99" target="QjGP2fid8rvRIQDYb7Sj-115">
          <mxGeometry relative="1" as="geometry" />
        </mxCell>
        <mxCell id="QjGP2fid8rvRIQDYb7Sj-117" value="MedicalRecordID" style="ellipse;whiteSpace=wrap;html=1;align=center;strokeColor=#BAC8D3;fontColor=#EEEEEE;fillColor=#09555B;" vertex="1" parent="1">
          <mxGeometry x="670" y="1180" width="120" height="50" as="geometry" />
        </mxCell>
      </root>
    </mxGraphModel>
  </diagram>
</mxfile>
